<?xml version="1.0" encoding="UTF-8"?>
<svg width="24" height="24" viewBox="0 0 24 24" fill="none" xmlns="http://www.w3.org/2000/svg">
  <path d="M20 8.69V4H15.31L12 0.69L8.69 4H4V8.69L0.69 12L4 15.31V20H8.69L12 23.31L15.31 20H20V15.31L23.31 12L20 8.69ZM12 18C8.69 18 6 15.31 6 12C6 8.69 8.69 6 12 6C15.31 6 18 8.69 18 12C18 15.31 15.31 18 12 18ZM12 4C11.45 4 11 4.45 11 5V7C11 7.55 11.45 8 12 8C12.55 8 13 7.55 13 7V5C13 4.45 12.55 4 12 4ZM12 20C11.45 20 11 20.45 11 21V23C11 23.55 11.45 24 12 24C12.55 24 13 23.55 13 23V21C13 20.45 12.55 20 12 20ZM5 11H7C7.55 11 8 11.45 8 12C8 12.55 7.55 13 7 13H5C4.45 13 4 12.55 4 12C4 11.45 4.45 11 5 11ZM17 11H19C19.55 11 20 11.45 20 12C20 12.55 19.55 13 19 13H17C16.45 13 16 12.55 16 12C16 11.45 16.45 11 17 11Z" fill="#757575"/>
</svg>
