<?xml version="1.0" encoding="UTF-8"?>
<svg width="24" height="24" viewBox="0 0 24 24" fill="none" xmlns="http://www.w3.org/2000/svg">
  <path d="M12 6C8.69 6 6 8.69 6 12C6 15.31 8.69 18 12 18C15.31 18 18 15.31 18 12C18 8.69 15.31 6 12 6ZM12 16C9.79 16 8 14.21 8 12C8 9.79 9.79 8 12 8C14.21 8 16 9.79 16 12C16 14.21 14.21 16 12 16ZM20 8.69V4H15.31L12 0.69L8.69 4H4V8.69L0.69 12L4 15.31V20H8.69L12 23.31L15.31 20H20V15.31L23.31 12L20 8.69ZM18 14.9V17H14.9L12 19.9L9.1 17H7V14.9L4.1 12L7 9.1V7H9.1L12 4.1L14.9 7H17V9.1L19.9 12L18 14.9Z" fill="#757575"/>
</svg>
