<svg xmlns="http://www.w3.org/2000/svg" height="24" viewBox="0 -960 960 960" width="24" fill="currentColor"><path d="M480-80q-83 0-156-31.5T197-197q-54-54-85.5-127T80-480q0-83 31.5-156T197-763q54-54 127-85.5T480-880q83 0 156 31.5T763-763q54 54 85.5 127T880-480q0 83-31.5 156T763-197q-54 54-127 85.5T480-80Zm0-82q26-36 45-75t31-83H404q12 44 31 83t45 75Zm-104-16q-18-33-31.5-68.5T322-320H204q29 50 72.5 87t99.5 55Zm208 0q56-18 99.5-55t72.5-87H638q-9 38-22.5 73.5T584-178ZM186-400h136q-3-20-4.5-39.5T316-480q0-21 1.5-40.5T322-560H186q-5 20-7.5 39.5T176-480q0 21 2.5 40.5T186-400Zm216 0h156q3-20 4.5-39.5T564-480q0-21-1.5-40.5T558-560H402q-3 20-4.5 39.5T396-480q0 21 1.5 40.5T402-400Zm236 0h136q5-20 7.5-39.5T784-480q0-21-2.5-40.5T774-560H638q3 20 4.5 39.5T644-480q0 21-1.5 40.5T638-400Zm-434-240h118q-12-44-31-83t-45-75q-56 18-99.5 55T74-656h130Zm238 0h152q-12-44-31-83t-45-75q-26 36-45 75t-31 83Z"/></svg>
