<svg xmlns="http://www.w3.org/2000/svg" height="24" viewBox="0 -960 960 960" width="24" fill="currentColor"><path d="M480-80q-83 0-156-31.5T197-197q-54-54-85.5-127T80-480q0-83 31.5-156T197-763q54-54 127-85.5T480-880q83 0 156 31.5T763-763q54 54 85.5 127T880-480q0 33-6.5 66t-19.5 62q-13 29-32.5 44.5T776-292q-29 0-52.5-16.5T690-358q-10-28-35-45t-55-17q-40 0-68 28t-28 68q0 40 28 68t68 28q7 0 14-1.5t14-3.5q6-2 10.5-2.5t8.5-.5q10 0 18 8t8 18q0 9-7 16.5t-19 15.5q-12 8-31 14t-45 6Zm0-224q29 0 49.5-20.5T550-374q0-29-20.5-49.5T480-444q-29 0-49.5 20.5T410-374q0 29 20.5 49.5T480-304Zm-174-50q21 0 35.5-14.5T356-404q0-21-14.5-35.5T306-454q-21 0-35.5 14.5T256-404q0 21 14.5 35.5T306-354Zm352-70q21 0 35.5-14.5T708-474q0-21-14.5-35.5T658-524q-21 0-35.5 14.5T608-474q0 21 14.5 35.5T658-424ZM256-514q21 0 35.5-14.5T306-564q0-21-14.5-35.5T256-614q-21 0-35.5 14.5T206-564q0 21 14.5 35.5T256-514Zm248 36q21 0 35.5-14.5T554-528q0-21-14.5-35.5T504-578q-21 0-35.5 14.5T454-528q0 21 14.5 35.5T504-478Z"/></svg>
