<?xml version="1.0" encoding="UTF-8"?>
<svg width="24px" height="24px" viewBox="0 0 24 24" version="1.1" xmlns="http://www.w3.org/2000/svg">
    <g stroke="none" stroke-width="1" fill="none" fill-rule="evenodd">
        <path d="M16,4 C18.21,4 20,5.79 20,8 C20,10.21 18.21,12 16,12 C13.79,12 12,10.21 12,8 C12,5.79 13.79,4 16,4 Z M16,13 C19.31,13 22,15.69 22,19 L22,20 L10,20 L10,19 C10,15.69 12.69,13 16,13 Z M8,4 C9.1,4 10,4.9 10,6 C10,7.1 9.1,8 8,8 C6.9,8 6,7.1 6,6 C6,4.9 6.9,4 8,4 Z M8,9 C10.21,9 12,10.79 12,13 L12,15 L4,15 L4,13 C4,10.79 5.79,9 8,9 Z" fill="#FFFFFF" fill-rule="nonzero"/>
    </g>
</svg>
