<svg xmlns="http://www.w3.org/2000/svg" height="24" viewBox="0 -960 960 960" width="24" fill="white"><path d="M480-120q-138 0-234-97t-96-235q0-111 66-201.5T397-778q13-5 26.5-1.5T450-765q12 11 16 28t-5 32q-40 52-60 116.5T381-451q0 91 64.5 155.5T600-231q100 0 170-70.5T840-472q0-51-22-102t-66-89q-12-11-14.5-26.5T745-716q9-14 24-19.5t32 0q118 44 183.5 138.5T1041-390q-3 140-98.5 235T480-120Zm-40-368 40 40v-262q0-17 11.5-28.5T520-750q17 0 28.5 11.5T560-710v262l40-40q12-12 28-12t28 12q11 12 11 28t-11 28L523-300q-5 5-12 7.5t-14 2.5q-6 0-14-2.5t-12-7.5L339-432q-12-12-12-28t12-28q12-12 28-11.5t28 11.5q9 13 22.5 6.5T431-488Z"/></svg>
