<svg xmlns="http://www.w3.org/2000/svg" height="24" viewBox="0 -960 960 960" width="24" fill="white"><path d="M382-240q15 0 25.5-10.5T418-276q0-15-10.5-25.5T382-312q-15 0-25.5 10.5T346-276q0 15 10.5 25.5T382-240Zm-40-154h64q0-29 5.5-48.5T448-489q25-25 37.5-44.5T498-574q0-36-24.5-58T402-654q-36 0-62 16.5T302-590l58 24q5-15 15.5-24t28.5-9q18 0 30 9.5t12 24.5q0 13-10 27t-30 36q-24 26-37 50t-13 58Zm258 314q-17 0-28.5-11.5T560-120v-326h-18v-14h51v340q0 17-11.5 28.5T600-80Zm-150 0q-85 0-158-30.5T175-195q-50-54-77.5-125T70-480q0-85 27.5-158T175-763q54-54 127-84.5T460-878q85 0 158 30.5T743-763q50 54 77.5 127T848-480q0 85-27.5 156T743-195q-54 50-127 82.5T450-80Zm0-80q134 0 227-93t93-227q0-134-93-227t-227-93q-134 0-227 93t-93 227q0 134 93 227t227 93Zm0-320Z"/></svg>
