<svg xmlns="http://www.w3.org/2000/svg" height="24" viewBox="0 -960 960 960" width="24" fill="currentColor"><path d="M664-160q-11 0-19.5-8.5T636-188v-584q0-11 8.5-19.5T664-800q11 0 19.5 8.5T692-772v584q0 11-8.5 19.5T664-160Zm96 48q-11 0-19.5-8.5T732-140v-680q0-11 8.5-19.5T760-848q11 0 19.5 8.5T788-820v680q0 11-8.5 19.5T760-112Zm96 48q-11 0-19.5-8.5T828-92v-776q0-11 8.5-19.5T856-896q11 0 19.5 8.5T884-868v776q0 11-8.5 19.5T856-64ZM296-160q-11 0-19.5-8.5T268-188v-584q0-11 8.5-19.5T296-800q11 0 19.5 8.5T324-772v584q0 11-8.5 19.5T296-160Zm-96 48q-11 0-19.5-8.5T172-140v-680q0-11 8.5-19.5T200-848q11 0 19.5 8.5T228-820v680q0 11-8.5 19.5T200-112Zm-96 48q-11 0-19.5-8.5T76-92v-776q0-11 8.5-19.5T104-896q11 0 19.5 8.5T132-868v776q0 11-8.5 19.5T104-64Zm376-336Z"/></svg>
