<svg xmlns="http://www.w3.org/2000/svg" height="24" viewBox="0 -960 960 960" width="24" fill="currentColor"><path d="M560-131q-14 0-25-7.5T521-157q-5-14-1-27.5t17-22.5q71-44 112.5-116t41.5-157q0-84-41.5-156T538-752q-13-9-17-22.5t-1-28.5q4-12 15-19.5t25-7.5q18 0 32 9 90 55 142 145.5T786-480q0 116-52 206.5T592-128q-14 9-32 9v-12Zm-80 0q-18 0-31-13t-13-31V-786q0-18 13-31t31-13q18 0 31 13t13 31v655q0 18-13 31t-31 13ZM240-320l120-120v-200L240-760q-11-11-28-11t-28 11q-11 11-11 28t11 28v346q0 17 11 28t28 11q17 0 28-11ZM480-480Zm-360 0v-80 80Z"/></svg>
