<svg xmlns="http://www.w3.org/2000/svg" height="24" viewBox="0 -960 960 960" width="24" fill="white"><path d="M480-120q-33 0-56.5-23.5T400-200q0-33 23.5-56.5T480-280q33 0 56.5 23.5T560-200q0 33-23.5 56.5T480-120Zm-198-198q-11-11-11-27.5t11-28.5q55-55 127-88t143-33q71 0 143 33t127 88q11 12 11 28.5T822-318q-11 11-28 11t-28-11q-44-44-100.5-70T480-414q-59 0-115.5 26T264-318q-11 11-27.5 11T208-318Zm-142-142q-12-12-12-28.5t12-27.5q95-96 220-148t194-52q69 0 194 52t220 148q12 11 12 27.5T694-212q-12 11-28.5 11T637-212q-80-80-184-124t-194-44q-90 0-194.5 44T80-212q-12 11-28.5 11T23-212q-12-12-12-28.5t12-27.5q11-11 17-11Z"/></svg>
