<svg xmlns="http://www.w3.org/2000/svg" height="24" viewBox="0 -960 960 960" width="24" fill="currentColor"><path d="M480-360q-33 0-56.5-23.5T400-440q0-33 23.5-56.5T480-520q33 0 56.5 23.5T560-440q0 33-23.5 56.5T480-360ZM280-520q-33 0-56.5-23.5T200-600q0-33 23.5-56.5T280-680q33 0 56.5 23.5T360-600q0 33-23.5 56.5T280-520Zm-200-80q-33 0-56.5-23.5T0-680q0-33 23.5-56.5T80-760q33 0 56.5 23.5T160-680q0 33-23.5 56.5T80-600Zm800 0q-33 0-56.5-23.5T800-680q0-33 23.5-56.5T880-760q33 0 56.5 23.5T960-680q0 33-23.5 56.5T880-600Zm-200-80q-33 0-56.5-23.5T600-760q0-33 23.5-56.5T680-840q33 0 56.5 23.5T760-760q0 33-23.5 56.5T680-680Zm-400 0q-33 0-56.5-23.5T200-760q0-33 23.5-56.5T280-840q33 0 56.5 23.5T360-760q0 33-23.5 56.5T280-680Zm400 160q-33 0-56.5-23.5T600-600q0-33 23.5-56.5T680-680q33 0 56.5 23.5T760-600q0 33-23.5 56.5T680-520ZM480-840q-33 0-56.5-23.5T400-920q0-33 23.5-56.5T480-1000q33 0 56.5 23.5T560-920q0 33-23.5 56.5T480-840Z"/></svg>
