<svg xmlns="http://www.w3.org/2000/svg" height="24" viewBox="0 -960 960 960" width="24" fill="currentColor"><path d="M480-360q-33 0-56.5-23.5T400-440q0-33 23.5-56.5T480-520q33 0 56.5 23.5T560-440q0 33-23.5 56.5T480-360ZM280-520q-33 0-56.5-23.5T200-600q0-33 23.5-56.5T280-680q33 0 56.5 23.5T360-600q0 33-23.5 56.5T280-520Zm400 0q-33 0-56.5-23.5T600-600q0-33 23.5-56.5T680-680q33 0 56.5 23.5T760-600q0 33-23.5 56.5T680-520ZM480-680q-33 0-56.5-23.5T400-760q0-33 23.5-56.5T480-840q33 0 56.5 23.5T560-760q0 33-23.5 56.5T480-680Z"/></svg>
