<?xml version="1.0" encoding="UTF-8"?>
<svg width="24px" height="24px" viewBox="0 0 24 24" version="1.1" xmlns="http://www.w3.org/2000/svg">
    <path d="M12,18 C8.691,18 6,15.309 6,12 C6,8.691 8.691,6 12,6 C15.309,6 18,8.691 18,12 C18,15.309 15.309,18 12,18 Z M12,8 C9.794,8 8,9.794 8,12 C8,14.206 9.794,16 12,16 C14.206,16 16,14.206 16,12 C16,9.794 14.206,8 12,8 Z M12,5 C11.448,5 11,4.552 11,4 L11,2 C11,1.448 11.448,1 12,1 C12.552,1 13,1.448 13,2 L13,4 C13,4.552 12.552,5 12,5 Z M12,23 C11.448,23 11,22.552 11,22 L11,20 C11,19.448 11.448,19 12,19 C12.552,19 13,19.448 13,20 L13,22 C13,22.552 12.552,23 12,23 Z M3.51471863,6.92896444 C3.12419433,6.53844013 3.12419433,5.9052932 3.51471863,5.5147689 L4.92896444,4.1005231 C5.31948874,3.70999879 5.95263567,3.70999879 6.34315998,4.1005231 C6.73368428,4.4910474 6.73368428,5.12419433 6.34315998,5.51471863 L4.92891417,6.92896444 C4.53838987,7.31948874 3.90524294,7.31948874 3.51471863,6.92896444 Z M19.0710356,20.4852814 C18.6805113,20.0947571 18.6805113,19.4616101 19.0710356,19.0710858 L20.4852814,17.65684 C20.8758057,17.2663157 21.5089526,17.2663157 21.8994769,17.65684 C22.2900012,18.0473643 22.2900012,18.6805113 21.8994769,19.0710356 L20.4852311,20.4852814 C20.0947068,20.8758057 19.4615599,20.8758057 19.0710356,20.4852814 Z M5,12 C5,11.448 4.552,11 4,11 L2,11 C1.448,11 1,11.448 1,12 C1,12.552 1.448,13 2,13 L4,13 C4.552,13 5,12.552 5,12 Z M23,12 C23,11.448 22.552,11 22,11 L20,11 C19.448,11 19,11.448 19,12 C19,12.552 19.448,13 20,13 L22,13 C22.552,13 23,12.552 23,12 Z M4.92891417,17.0710356 C5.31943847,16.6805113 5.31943847,16.0473643 4.92891417,15.65684 L3.51466837,14.2425942 C3.12414406,13.8520699 2.49099714,13.8520699 2.10047283,14.2425942 C1.70994853,14.6331185 1.70994853,15.2662655 2.10047283,15.6567898 L3.51471863,17.0710356 C3.90524294,17.4615599 4.53838987,17.4615599 4.92891417,17.0710356 Z M20.4852311,3.51471863 C20.8757554,3.12419433 20.8757554,2.4910474 20.4852311,2.1005231 L19.0709853,0.686277297 C18.680461,0.295752994 18.0473141,0.295752994 17.6567898,0.686277297 C17.2662655,1.0768016 17.2662655,1.70994853 17.6567898,2.10047283 L19.0710356,3.51471863 C19.4615599,3.90524294 20.0947068,3.90524294 20.4852311,3.51471863 Z" fill="#5ed4f4"></path>
</svg>
