<?xml version="1.0" encoding="UTF-8"?>
<svg width="24px" height="24px" viewBox="0 0 24 24" version="1.1" xmlns="http://www.w3.org/2000/svg">
    <path d="M0,15 L2,15 C2,16.66 3.34,18 5,18 L9,18 C10.66,18 12,16.66 12,15 L14,15 C14,17.76 11.76,20 9,20 L5,20 C2.24,20 0,17.76 0,15 Z M17,10 C17,11.1 16.1,12 15,12 L8,12 C6.9,12 6,11.1 6,10 L6,9 L4,9 L4,10 C4,12.21 5.79,14 8,14 L15,14 C17.21,14 19,12.21 19,10 L19,9 L17,9 L17,10 Z M20,4 L22,4 L22,6 L20,6 L20,4 Z M20,0 L22,0 L22,2 L20,2 L20,0 Z M16,4 L18,4 L18,6 L16,6 L16,4 Z M16,0 L18,0 L18,2 L16,2 L16,0 Z M18,2 L20,2 L20,4 L18,4 L18,2 Z M22,2 L24,2 L24,4 L22,4 L22,2 Z M22,6 L24,6 L24,8 L22,8 L22,6 Z M22,10 L24,10 L24,12 L22,12 L22,10 Z M20,8 L17,8 L17,4 L12,4 L12,8 L5,8 C3.34,8 2,6.66 2,5 L0,5 C0,7.76 2.24,10 5,10 L12,10 L12,6 L15,6 L15,10 L19,10 L19,8 L20,8 Z" fill="#5ed4f4"></path>
</svg>
