<?xml version="1.0" encoding="UTF-8"?>
<svg width="24px" height="24px" viewBox="0 0 24 24" version="1.1" xmlns="http://www.w3.org/2000/svg">
    <path d="M14.5,11.5 C14.5,10.119 13.381,9 12,9 C10.619,9 9.5,10.119 9.5,11.5 C9.5,12.881 10.619,14 12,14 C13.381,14 14.5,12.881 14.5,11.5 Z M8,5.5 C8,4.119 6.881,3 5.5,3 C4.119,3 3,4.119 3,5.5 C3,6.881 4.119,8 5.5,8 C6.881,8 8,6.881 8,5.5 Z M8,17.5 C8,16.119 6.881,15 5.5,15 C4.119,15 3,16.119 3,17.5 C3,18.881 4.119,20 5.5,20 C6.881,20 8,18.881 8,17.5 Z M21,17.5 C21,16.119 19.881,15 18.5,15 C17.119,15 16,16.119 16,17.5 C16,18.881 17.119,20 18.5,20 C19.881,20 21,18.881 21,17.5 Z M21,5.5 C21,4.119 19.881,3 18.5,3 C17.119,3 16,4.119 16,5.5 C16,6.881 17.119,8 18.5,8 C19.881,8 21,6.881 21,5.5 Z" fill="#5ed4f4"></path>
</svg>
